<?xml version="1.0" encoding="UTF-8" standalone="no"?>
<!-- Created with Inkscape (http://www.inkscape.org/) -->

<svg
   version="1.1"
   id="svg2"
   width="474.32617"
   height="152.07812"
   viewBox="0 0 474.32617 152.07814"
   sodipodi:docname="Scopus_logo.svg"
   inkscape:version="1.4 (86a8ad7, 2024-10-11)"
   xmlns:inkscape="http://www.inkscape.org/namespaces/inkscape"
   xmlns:sodipodi="http://sodipodi.sourceforge.net/DTD/sodipodi-0.dtd"
   xmlns="http://www.w3.org/2000/svg"
   xmlns:svg="http://www.w3.org/2000/svg"
   xmlns:rdf="http://www.w3.org/1999/02/22-rdf-syntax-ns#"
   xmlns:cc="http://creativecommons.org/ns#"
   xmlns:dc="http://purl.org/dc/elements/1.1/">
  <metadata
     id="metadata8">
    <rdf:RDF>
      <cc:Work
         rdf:about="">
        <dc:format>image/svg+xml</dc:format>
        <dc:type
           rdf:resource="http://purl.org/dc/dcmitype/StillImage" />
      </cc:Work>
    </rdf:RDF>
  </metadata>
  <defs
     id="defs6" />
  <sodipodi:namedview
     pagecolor="#ffffff"
     bordercolor="#666666"
     borderopacity="1"
     objecttolerance="10"
     gridtolerance="10"
     guidetolerance="10"
     inkscape:pageopacity="0"
     inkscape:pageshadow="2"
     inkscape:window-width="1920"
     inkscape:window-height="1051"
     id="namedview4"
     showgrid="false"
     fit-margin-top="10"
     fit-margin-left="10"
     fit-margin-right="10"
     fit-margin-bottom="10"
     inkscape:zoom="2.045"
     inkscape:cx="223.47188"
     inkscape:cy="-1.7114914"
     inkscape:window-x="-9"
     inkscape:window-y="-9"
     inkscape:window-maximized="1"
     inkscape:current-layer="svg2"
     inkscape:showpageshadow="2"
     inkscape:pagecheckerboard="0"
     inkscape:deskcolor="#d1d1d1"
     showguides="true">
    <sodipodi:guide
       position="232.76191,182.52406"
       orientation="1,0"
       id="guide1"
       inkscape:locked="false" />
    <sodipodi:guide
       position="20.536977,55.384684"
       orientation="0,-1"
       id="guide2"
       inkscape:locked="false" />
  </sodipodi:namedview>
  <path
     id="rect2"
     style="opacity:1;fill:#000000;fill-opacity:1;stroke-width:1.16632;-inkscape-stroke:none"
     d="M 76.039063,0 C 33.913392,0 0,33.913393 0,76.039063 0,118.16473 33.913392,152.07812 76.039063,152.07812 H 398.28711 c 42.12567,0 76.03906,-33.91339 76.03906,-76.039057 C 474.32617,33.913393 440.41278,0 398.28711,0 Z m -6.306641,28.09375 c 8.355675,-0.0062 10.568256,0.223952 14.746094,1.53711 2.703553,0.849766 4.951235,1.917647 4.99414,2.373047 0.170772,1.813059 -0.233332,9.673255 -0.521484,10.144531 -0.169079,0.276342 -1.436001,0.01106 -2.814453,-0.589844 -8.886875,-3.873847 -18.619862,-4.914083 -24.384766,-2.607422 -5.471372,2.189211 -8.520923,8.131072 -6.9375,13.515625 1.119008,3.805214 6.987023,9.320457 14.960938,14.056641 15.922787,9.457511 20.978862,15.345724 21.132812,24.617187 0.107419,6.470516 -1.712731,10.828915 -6.539062,15.654295 -5.83476,5.83359 -9.626933,7.20192 -20.740235,7.48633 -5.755033,0.14727 -9.922244,-0.10679 -12.986328,-0.79101 -7.307709,-1.63188 -9.395032,-2.7261 -9.347656,-4.9004 0.05849,-2.68069 1.02994,-8.23698 1.527344,-8.734371 0.23368,-0.233681 2.036779,0.271831 4.005859,1.123051 7.687882,3.32339 16.394349,4.33542 22.5625,2.62304 4.064949,-1.12848 8.230661,-5.607633 8.810547,-9.474607 C 79.09377,88.174659 75.494947,83.492378 65.488281,77.585938 46.88033,66.60256 41.953944,60.917878 41.939453,50.41211 c -0.0085,-6.89717 1.503663,-10.713722 6.050781,-15.265625 5.869977,-5.876196 9.467714,-7.043369 21.742188,-7.052735 z m 355.115228,3.048829 c 2.32664,-0.0034 3.36706,0.428885 5.32227,2.220703 4.57357,4.191378 3.46581,11.420218 -2.10547,13.748047 -2.86948,1.19894 -4.12892,1.193403 -6.94141,-0.0293 -4.12133,-1.791663 -6.18434,-7.832819 -4.01171,-11.748047 1.37374,-2.475593 4.53189,-4.186456 7.73632,-4.191406 z m -0.15625,2.513671 c -0.44144,-0.0092 -0.81953,0.06739 -1.0957,0.242188 -0.70884,0.448683 -0.49455,0.611479 0.82031,0.619141 2.52807,0.01462 3.54915,1.53377 3,4.460937 -0.28673,1.528518 -0.15451,2.79407 0.35352,3.40625 1.2543,1.511312 2.66211,-0.123437 2.66211,-3.089844 0,-1.54368 -0.46103,-2.940227 -1.1875,-3.597656 -1.34326,-1.215639 -3.22841,-2.013551 -4.55274,-2.041016 z m -3.79687,1.210938 -1.33399,1.599609 c -1.50583,1.807546 -1.61601,2.651471 -0.67187,5.134766 1.15669,3.042334 2.05097,1.939993 2.02734,-2.498047 z m 3.42383,2.039062 c -0.37897,0.234223 -0.51336,0.711454 -0.29883,1.058594 0.58121,0.940424 0.98828,0.765158 0.98828,-0.425781 0,-0.581365 -0.31046,-0.86704 -0.68945,-0.632813 z m -0.0488,5.097657 c -0.29862,0.0012 -0.53978,0.31345 -0.99609,0.9375 -0.51374,0.702566 -0.77464,1.537503 -0.57813,1.855468 0.46681,0.755328 3.48298,0.747785 3.95117,-0.0098 0.1996,-0.323071 -0.26837,-1.157994 -1.03906,-1.855469 -0.68454,-0.619507 -1.03927,-0.928924 -1.33789,-0.927734 z m -162.12695,6.8125 c 6.64214,0.05798 8.8925,0.701355 13.25781,3.789062 6.23734,4.411861 9.3636,12.917234 9.42969,25.652344 0.0868,16.748266 -5.92901,28.265957 -17.62305,33.738277 -3.75813,1.75864 -5.6194,2.18396 -10.5957,2.42188 -3.72301,0.178 -7.49392,-0.0607 -9.8418,-0.62305 -2.09365,-0.50145 -4.11148,-0.92285 -4.48438,-0.93554 -0.41929,-0.0144 -0.80792,5.15136 -1.01757,13.5371 l -0.33985,13.56055 -5.17187,0.19727 c -4.14715,0.15759 -5.25038,-0.01 -5.57032,-0.84375 -0.21942,-0.5718 -0.4298,-20.79737 -0.46874,-44.945315 l -0.0703,-43.904297 h 4.54883 c 5.02053,0 5.3585,0.255171 6.04883,4.576172 0.22342,1.398391 0.72422,2.542969 1.11328,2.542969 0.38908,0 2.28233,-1.379275 4.20703,-3.064454 4.88019,-4.272912 9.21589,-5.763507 16.57813,-5.699218 z m 128.12109,0.01563 c 4.34462,0.212551 8.65073,0.907684 11.35156,2.007812 l 4.06836,1.65625 0.17578,4.068359 c 0.26325,6.106589 -0.23274,6.451567 -5.46289,3.796876 -5.08291,-2.579946 -13.29055,-3.580871 -17.63086,-2.148438 -3.02204,0.997362 -5.89859,4.27133 -5.89258,6.707031 0.0101,4.182707 3.13251,6.832396 14.59766,12.384766 12.46559,6.036876 17.39442,12.334961 16.37695,20.925781 -0.8021,6.772726 -5.34076,12.270886 -12.26953,14.863286 -3.09313,1.15728 -5.2618,1.42574 -11.10742,1.37695 -3.99475,-0.0334 -8.63637,-0.43842 -10.31445,-0.90234 -4.46972,-1.23567 -8.03516,-3.07673 -8.4375,-4.35547 -0.39191,-1.24553 0.54497,-8.03131 1.19922,-8.68555 0.22906,-0.22907 2.69188,0.709 5.47461,2.08398 8.45967,4.18 17.86611,4.05966 22.21093,-0.28515 1.5742,-1.57421 1.92774,-2.515742 1.92774,-5.136722 0,-2.835188 -0.30102,-3.494467 -2.58789,-5.669921 -1.42325,-1.353899 -5.59591,-3.925493 -9.27344,-5.714844 -8.92721,-4.34366 -13.90089,-7.815578 -16.29492,-11.378906 -1.66034,-2.471355 -2.01716,-3.766579 -2.2168,-8.03125 -0.20362,-4.348235 -0.003,-5.527775 1.38867,-8.136719 2.06747,-3.875315 6.32849,-7.142093 11.14063,-8.541016 2.85014,-0.828559 7.23155,-1.097317 11.57617,-0.884765 z m -260.73633,0.04297 c 8.60095,-0.271027 13.57142,0.90011 17.14649,4.039063 2.55493,2.243282 3.99789,5.853529 3.63086,9.083984 -0.22701,1.997843 -0.28405,2.024639 -4.80274,2.222656 l -4.57226,0.201172 -1.12891,-2.367187 c -1.52443,-3.196755 -3.78355,-3.988089 -10.56445,-3.699219 -6.38539,0.272017 -8.2255,1.25815 -11.55469,6.1875 -3.0819,4.563192 -4.05411,9.115217 -3.78125,17.707031 0.22016,6.933026 0.42688,7.942052 2.47461,12.101563 4.48786,9.1161 12.52818,12.54174 22.56054,9.61328 2.02541,-0.59123 5.00891,-1.84144 6.63086,-2.7793 1.62195,-0.93786 3.19725,-1.44605 3.5,-1.1289 0.30278,0.31715 0.65303,2.38881 0.7793,4.60351 0.22367,3.92362 0.16993,4.06681 -2.08398,5.59961 -3.82512,2.60141 -8.66558,3.76682 -16.66992,4.01563 -5.2705,0.16383 -8.37933,-0.0616 -10.59766,-0.76953 -9.2738,-2.95961 -16.10004,-11.53455 -18.26367,-22.943363 -0.96459,-5.08622 -0.75442,-15.278247 0.40625,-19.734375 2.34205,-8.991704 8.16516,-16.344831 15.76367,-19.90625 3.29083,-1.542422 4.97192,-1.852918 11.12695,-2.046875 z m 48.27539,0.228516 h 8.84961 c 8.18137,0 9.14228,0.138408 12.72656,1.818359 7.12375,3.338902 12.56541,9.787372 15.16602,17.972657 1.62379,5.110843 1.98843,16.612396 0.69922,22.082031 -2.75103,11.67148 -10.2511,19.74841 -20.9961,22.60937 -4.37096,1.16381 -14.09584,1.14391 -17.875,-0.0371 -9.13671,-2.85544 -16.16153,-10.62059 -18.89453,-20.886714 -1.32496,-4.977002 -1.25047,-17.590741 0.13086,-22.246094 2.72275,-9.176828 7.36141,-14.969059 15.01953,-18.753906 z m 161.09766,1.017578 h 5.04492 c 2.77479,0 5.19482,0.240494 5.37695,0.535156 0.182,0.29466 0.39973,14.407228 0.48438,31.359375 l 0.1543,30.822268 -3.89258,0.20508 c -4.61246,0.24298 -5.67108,-0.44116 -6.2461,-4.03711 -0.57928,-3.62281 -1.38898,-3.85086 -3.70507,-1.04102 -1.0897,1.322 -3.85683,3.33924 -6.14844,4.48438 -3.85836,1.92803 -4.67262,2.07887 -11.00781,2.0293 -4.31105,-0.0337 -7.93938,-0.44102 -9.8086,-1.10157 -4.05092,-1.43154 -7.78051,-5.34314 -9.32617,-9.78125 -1.14914,-3.29953 -1.26758,-5.963146 -1.26758,-28.388671 V 50.460938 l 5.16797,-0.197266 c 4.89093,-0.185923 5.19239,-0.113672 5.58594,1.355469 0.22871,0.85387 0.42057,11.012243 0.42773,22.572266 0.008,12.634693 0.29998,22.045587 0.73047,23.595703 0.39382,1.418268 1.5607,3.52546 2.59375,4.68164 1.56868,1.75562 2.49566,2.1526 5.625,2.41211 6.16602,0.51133 10.69838,-1.19877 14.41602,-5.439453 5.86397,-6.688995 5.79492,-6.338165 5.79492,-29.19336 z M 185.4805,58.261726 c -8.81104,-0.0086 -13.662,4.620411 -16.52149,15.769531 -1.28336,5.003747 -0.94458,13.111514 0.78321,18.736329 1.32526,4.314351 6.71196,10.170484 10.5039,11.419924 3.69118,1.21622 11.39463,0.7385 14.57813,-0.9043 5.4726,-2.82406 9.43083,-12.179296 9.29687,-21.972656 -0.11545,-8.443518 -2.0599,-14.184886 -6.21094,-18.335937 -3.64287,-3.642851 -6.44849,-4.707121 -12.42968,-4.712891 z m 75.45898,0.253906 c -0.91926,-0.09256 -1.88869,-0.08764 -2.9082,0.01367 -2.15354,0.214018 -4.77055,0.831277 -5.81445,1.371094 -2.52091,1.303624 -10.15446,9.512784 -10.62305,11.423828 -0.20362,0.830769 -0.28516,8.067632 -0.17969,16.082031 l 0.19336,14.572265 3.72852,1.50977 c 4.41434,1.78775 10.6924,2.02453 14.84179,0.56054 4.48397,-1.58203 7.33887,-4.215183 9.63867,-8.886715 2.79977,-5.687175 3.82494,-13.178776 2.83204,-20.699219 -1.30903,-9.915003 -5.27413,-15.299314 -11.70899,-15.947266 z" />
</svg>
